<svg width="1440" height="738" viewBox="0 0 1440 738" fill="none" xmlns="http://www.w3.org/2000/svg">
<path d="M1306.5 285.745C1361.69 231.088 1443.14 42.0179 1439.78 0.00012207H1267.41C1267.11 53.388 1240.91 139.94 1203 169.815C1142.85 217.223 1058.14 211.447 994.929 267.652C862.667 385.256 882.016 469.69 771.549 469.69C610.341 469.69 568.237 285.745 383.244 285.745C123.197 285.745 49.1551 545.757 0 545.757L0.00459339 738C76.6444 738 172.238 438.329 367.273 438.329C562.308 438.329 658.41 657.69 822.458 622.274C942.583 596.341 941.048 438.422 1048.11 385.35C1112.26 353.55 1218.81 372.591 1306.5 285.745Z" fill="#FFC780"/>
<path d="M739.167 325.746C624.748 325.746 568.161 154.116 345.904 154.116C141.131 154.116 32.7442 245.785 0 289.77L0.143905 0L1092 0.000122263C1019 154.116 956.175 81.3153 896.52 145.064C857.554 186.703 853.587 325.746 739.167 325.746Z" fill="#F49D1A"/>
</svg>
