<?xml version="1.0" encoding="UTF-8"?>
<svg id="Layer_2" xmlns="http://www.w3.org/2000/svg" viewBox="0 0 552.91 552.91">
  <defs>
    <style>
      .cls-1 {
        fill: #21bac6;
      }
    </style>
  </defs>
  <path class="cls-1" d="M290.38,4.23l36.43,24.38c8.83,5.91,19.36,8.73,29.96,8.03l43.74-2.9c10.12-.67,19.64,4.83,24.12,13.93l19.36,39.33c4.69,9.53,12.4,17.24,21.93,21.93l39.33,19.36c9.1,4.48,14.6,14,13.93,24.12l-2.9,43.74c-.7,10.6,2.12,21.13,8.03,29.96l24.38,36.43c5.64,8.43,5.64,19.42,0,27.85l-24.38,36.43c-5.91,8.83-8.73,19.36-8.03,29.96l2.9,43.74c.67,10.12-4.83,19.64-13.93,24.12l-39.33,19.36c-9.53,4.69-17.24,12.4-21.93,21.93l-19.36,39.33c-4.48,9.1-14,14.6-24.12,13.93l-43.74-2.9c-10.6-.7-21.13,2.12-29.96,8.03l-36.43,24.38c-8.43,5.64-19.42,5.64-27.85,0l-36.43-24.38c-8.83-5.91-19.36-8.73-29.96-8.03l-43.74,2.9c-10.12.67-19.64-4.83-24.12-13.93l-19.36-39.33c-4.69-9.53-12.4-17.24-21.93-21.93l-39.33-19.36c-9.1-4.48-14.6-14-13.93-24.12l2.9-43.74c.7-10.6-2.12-21.13-8.03-29.96l-24.38-36.43c-5.64-8.43-5.64-19.42,0-27.85l24.38-36.43c5.91-8.83,8.73-19.36,8.03-29.96l-2.9-43.74c-.67-10.12,4.83-19.64,13.93-24.12l39.33-19.36c9.53-4.69,17.24-12.4,21.93-21.93l19.36-39.33c4.48-9.1,14-14.6,24.12-13.93l43.74,2.9c10.6.7,21.13-2.12,29.96-8.03l36.43-24.38c8.43-5.64,19.42-5.64,27.85,0Z"/>
</svg>